M48
INCH
T1C0.0157
T2C0.0276
T3C0.0315
T4C0.0354
T5C0.0394
T6C0.0551
T7C0.0669
%
G90
G05
T1
X3.585Y-1.725
X3.59Y-1.91
X3.59Y-2.34
X3.595Y-1.12
X3.6Y-3.25
X3.72Y-2.8
X3.815Y-2.8
X3.92Y-1.61
X3.92Y-1.675
X3.97Y-2.51
X3.975Y-1.905
X3.98Y-1.61
X3.98Y-1.675
X4.0115Y-1.315
X4.024Y-1.542
X4.03Y-1.488
X4.036Y-1.404
X4.045Y-2.59
X4.054Y-1.448
X4.075Y-3.25
X4.12Y-2.395
X4.14Y-1.8
X4.152Y-2.502
X4.16Y-2.19
X4.17Y-1.115
X4.18Y-1.63
X4.18Y-1.748
X4.184Y-2.72
X4.266Y-1.625
X4.266Y-1.832
X4.266Y-2.36
X4.28Y-2.59
X4.298Y-1.114
X4.3138Y-2.9502
X4.32Y-3.248
X4.37Y-2.08
X4.378Y-3.034
X4.434Y-2.798
X4.495Y-3.045
X4.53Y-1.61
X4.532Y-2.362
X4.542Y-1.846
X4.556Y-2.62
X4.672Y-2.146
X4.718Y-2.362
X4.718Y-3.25
X4.72Y-1.605
X4.726Y-2.892
X4.742Y-2.688
X4.848Y-2.59
X4.928Y-2.362
X4.935Y-1.835
X5.165Y-1.575
X5.192Y-2.71
X5.215Y-1.385
X5.22Y-2.155
X5.24Y-2.88
X5.255Y-2.3
X5.27Y-1.705
X5.34Y-2.568
X5.374Y-1.116
X5.375Y-1.38
X5.39Y-1.48
X5.405Y-2.88
X5.48Y-1.72
X5.53Y-1.38
X5.566Y-2.74
X5.635Y-2.88
X5.655Y-1.93
X5.67Y-1.63
X5.7143Y-3.0838
X5.82Y-2.37
X5.84Y-1.45
X5.845Y-2.84
X5.8702Y-3.0838
X5.906Y-2.064
X5.945Y-1.65
X6.01Y-3.11
X6.0368Y-1.4101
X6.06Y-2.88
X6.116Y-1.114
X6.128Y-2.532
X6.128Y-2.792
X6.13Y-3.245
X6.136Y-1.534
X6.136Y-1.774
X6.15Y-2.16
T2
X3.9213Y-2.8931
X3.9213Y-3.1931
X4.1213Y-1.5768
X4.1213Y-1.8768
X4.1213Y-2.0049
X4.1213Y-2.3049
X4.2213Y-2.8931
X4.2213Y-3.1931
X4.4213Y-1.5768
X4.4213Y-1.8768
X4.4213Y-2.0049
X4.4213Y-2.3049
X4.4213Y-2.8931
X4.4213Y-3.1931
X4.6213Y-1.5768
X4.6213Y-1.8768
X4.6213Y-2.0049
X4.6213Y-2.3049
X4.6213Y-2.8931
X4.6213Y-3.1931
X4.8213Y-1.5768
X4.8213Y-1.8768
X4.8213Y-2.0049
X4.8213Y-2.3049
T3
X4.05Y-2.005
X5.595Y-1.705
X5.6013Y-1.7887
T4
X5.07Y-1.6584
X5.07Y-2.6616
X6.07Y-1.6584
X6.07Y-2.6616
T5
X4.275Y-2.6796
X4.475Y-2.68
X4.65Y-2.6796
X4.85Y-2.68
T6
X5.07Y-2.0584
X5.07Y-2.2616
X5.37Y-2.0584
X5.37Y-2.2616
X5.77Y-2.0584
X5.77Y-2.2616
X6.07Y-2.0584
X6.07Y-2.2616
T7
X4.8339Y-1.285
X4.8568Y-3.0002
X4.9859Y-1.285
X5.0127Y-3.0002
X5.1418Y-1.285
X5.1686Y-3.0002
X5.2977Y-1.285
X5.3245Y-3.0002
X5.4536Y-1.285
X5.4804Y-3.0002
X5.6095Y-1.285
X5.6363Y-3.0002
X5.7654Y-1.285
X5.7922Y-3.0002
X5.9213Y-1.285
X5.9481Y-3.0002
X6.0772Y-1.285
X6.104Y-3.0002
T0
M30
