%TF.GenerationSoftware,KiCad,Pcbnew,(6.0.8-1)-1*%
%TF.CreationDate,2022-10-16T10:23:05+02:00*%
%TF.ProjectId,HP6632B_relay_board,48503636-3332-4425-9f72-656c61795f62,rev?*%
%TF.SameCoordinates,Original*%
%TF.FileFunction,Soldermask,Top*%
%TF.FilePolarity,Negative*%
%FSLAX46Y46*%
G04 Gerber Fmt 4.6, Leading zero omitted, Abs format (unit mm)*
G04 Created by KiCad (PCBNEW (6.0.8-1)-1) date 2022-10-16 10:23:05*
%MOMM*%
%LPD*%
G01*
G04 APERTURE LIST*
G04 Aperture macros list*
%AMRoundRect*
0 Rectangle with rounded corners*
0 $1 Rounding radius*
0 $2 $3 $4 $5 $6 $7 $8 $9 X,Y pos of 4 corners*
0 Add a 4 corners polygon primitive as box body*
4,1,4,$2,$3,$4,$5,$6,$7,$8,$9,$2,$3,0*
0 Add four circle primitives for the rounded corners*
1,1,$1+$1,$2,$3*
1,1,$1+$1,$4,$5*
1,1,$1+$1,$6,$7*
1,1,$1+$1,$8,$9*
0 Add four rect primitives between the rounded corners*
20,1,$1+$1,$2,$3,$4,$5,0*
20,1,$1+$1,$4,$5,$6,$7,0*
20,1,$1+$1,$6,$7,$8,$9,0*
20,1,$1+$1,$8,$9,$2,$3,0*%
G04 Aperture macros list end*
%ADD10C,2.000000*%
%ADD11R,1.400000X1.400000*%
%ADD12C,1.400000*%
%ADD13RoundRect,0.250000X1.330000X1.800000X-1.330000X1.800000X-1.330000X-1.800000X1.330000X-1.800000X0*%
%ADD14O,3.160000X4.100000*%
%ADD15R,2.000000X0.610000*%
%ADD16R,3.600000X2.680000*%
%ADD17R,2.000000X2.000000*%
%ADD18C,3.000000*%
%ADD19RoundRect,0.250000X0.475000X-0.337500X0.475000X0.337500X-0.475000X0.337500X-0.475000X-0.337500X0*%
%ADD20RoundRect,0.250000X-1.330000X-1.800000X1.330000X-1.800000X1.330000X1.800000X-1.330000X1.800000X0*%
G04 APERTURE END LIST*
D10*
%TO.C,F601*%
X113665000Y-68072000D03*
X108585000Y-68062000D03*
%TD*%
D11*
%TO.C,K601*%
X104680500Y-47670483D03*
D12*
X112300500Y-47670483D03*
X117380500Y-47670483D03*
X122460500Y-47670483D03*
X122460500Y-40050483D03*
X117380500Y-40050483D03*
X112300500Y-40050483D03*
X104680500Y-40050483D03*
%TD*%
D13*
%TO.C,J620*%
X155042000Y-76204500D03*
D14*
X151082000Y-76204500D03*
X147122000Y-76204500D03*
X143162000Y-76204500D03*
X139202000Y-76204500D03*
X135242000Y-76204500D03*
X131282000Y-76204500D03*
X127322000Y-76204500D03*
X123362000Y-76204500D03*
%TD*%
D15*
%TO.C,J610*%
X98955000Y-32594600D03*
X98955000Y-33594600D03*
X98955000Y-34594600D03*
X98955000Y-35594600D03*
X98955000Y-36594600D03*
X98955000Y-37594600D03*
X98955000Y-38594600D03*
X98955000Y-39594600D03*
D16*
X96155000Y-29604600D03*
X96155000Y-42584600D03*
%TD*%
D17*
%TO.C,K604*%
X128778000Y-67604000D03*
D10*
X154178000Y-67604000D03*
D18*
X154178000Y-57444000D03*
X146558000Y-57444000D03*
X136398000Y-57444000D03*
X128778000Y-57444000D03*
%TD*%
D17*
%TO.C,K605*%
X154178000Y-42124000D03*
D10*
X128778000Y-42124000D03*
D18*
X128778000Y-52284000D03*
X136398000Y-52284000D03*
X146558000Y-52284000D03*
X154178000Y-52284000D03*
%TD*%
D19*
%TO.C,C600*%
X103784400Y-34667100D03*
X103784400Y-32592100D03*
%TD*%
D11*
%TO.C,K603*%
X104680500Y-58544983D03*
D12*
X112300500Y-58544983D03*
X117380500Y-58544983D03*
X122460500Y-58544983D03*
X122460500Y-50924983D03*
X117380500Y-50924983D03*
X112300500Y-50924983D03*
X104680500Y-50924983D03*
%TD*%
D11*
%TO.C,K602*%
X99600500Y-81105500D03*
D12*
X107220500Y-81105500D03*
X112300500Y-81105500D03*
X117380500Y-81105500D03*
X117380500Y-73485500D03*
X112300500Y-73485500D03*
X107220500Y-73485500D03*
X99600500Y-73485500D03*
%TD*%
D10*
%TO.C,F602*%
X123190000Y-68072000D03*
X118110000Y-68062000D03*
%TD*%
D20*
%TO.C,J1*%
X154362000Y-32639000D03*
D14*
X150402000Y-32639000D03*
X146442000Y-32639000D03*
X142482000Y-32639000D03*
X138522000Y-32639000D03*
X134562000Y-32639000D03*
X130602000Y-32639000D03*
X126642000Y-32639000D03*
X122782000Y-32639000D03*
%TD*%
M02*
